<?xml version="1.0" standalone="no"?><!DOCTYPE svg PUBLIC "-//W3C//DTD SVG 1.1//EN" "http://www.w3.org/Graphics/SVG/1.1/DTD/svg11.dtd"><svg t="1694742450766" class="icon" viewBox="0 0 1024 1024" version="1.1" xmlns="http://www.w3.org/2000/svg" p-id="8370" xmlns:xlink="http://www.w3.org/1999/xlink" width="200" height="200"><path d="M0 0h1024v1024H0z" fill="#FFFFFF" fill-opacity="0" p-id="8371"></path><path d="M20.002133 512a491.997867 491.997867 0 1 0 983.995734 0A491.997867 491.997867 0 0 0 20.002133 512z" fill="#FDDF6D" p-id="8372"></path><path d="M617.437867 931.362133c-271.701333 0-491.997867-220.2624-491.997867-491.997866 0-145.169067 62.8736-275.626667 162.884267-365.6704C129.058133 155.136 20.036267 320.8192 20.036267 512 20.002133 783.701333 240.298667 1003.997867 512 1003.997867c126.532267 0 241.937067-47.786667 329.1136-126.293334a489.915733 489.915733 0 0 1-223.675733 53.6576z" fill="#FCC56B" p-id="8373"></path><path d="M600.644267 785.749333a146.432 146.432 0 0 1-127.7952-75.1616 20.002133 20.002133 0 0 1 34.952533-19.490133c18.773333 33.6896 54.340267 54.613333 92.842667 54.613333 37.546667 0 73.5232-21.162667 93.934933-55.159466a20.002133 20.002133 0 1 1 34.304 20.5824c-27.579733 46.011733-76.731733 74.615467-128.238933 74.615466z m232.277333-337.7152a20.002133 20.002133 0 0 1-17.5104-10.24 72.8064 72.8064 0 0 0-63.522133-37.410133c-25.7024 0-50.3808 14.5408-64.4096 37.922133a20.002133 20.002133 0 1 1-34.338134-20.5824c21.230933-35.396267 59.050667-57.344 98.747734-57.344 40.8576 0 78.609067 22.186667 98.5088 57.890134a20.002133 20.002133 0 0 1-17.476267 29.764266z" fill="#7F184C" p-id="8374"></path><path d="M370.517333 420.386133a60.074667 60.074667 0 1 0 120.081067 0 60.074667 60.074667 0 0 0-120.081067 0z" fill="#FFFFFF" p-id="8375"></path><path d="M354.884267 561.152c-36.522667 0-66.1504 29.627733-66.1504 66.1504h132.3008c0-36.522667-29.627733-66.1504-66.1504-66.1504z m486.229333 0c-36.522667 0-66.184533 29.627733-66.184533 66.1504h132.334933c0-36.522667-29.627733-66.1504-66.1504-66.1504z" fill="#F9A880" p-id="8376"></path><path d="M683.281067 29.354667a20.036267 20.036267 0 0 0-13.380267 37.717333A472.8832 472.8832 0 0 1 983.9616 512c0 260.232533-211.694933 471.9616-471.9616 471.9616-260.232533 0-471.9616-211.729067-471.9616-471.9616S251.767467 40.0384 512 40.0384A20.002133 20.002133 0 0 0 512 0C229.6832 0 0 229.6832 0 512s229.6832 512 512 512 512-229.6832 512-512A513.024 513.024 0 0 0 683.281067 29.354667z" fill="#000000" p-id="8377"></path><path d="M600.644267 785.749333c51.541333 0 100.693333-28.603733 128.273066-74.615466a20.002133 20.002133 0 1 0-34.338133-20.5824c-20.411733 34.030933-56.388267 55.159467-93.9008 55.159466a106.3936 106.3936 0 0 1-92.842667-54.613333 20.002133 20.002133 0 0 0-34.986666 19.456 146.432 146.432 0 0 0 127.7952 75.195733z m59.392-340.548266a20.002133 20.002133 0 0 0 27.4432-6.894934c13.994667-23.381333 38.7072-37.888 64.4096-37.888 26.350933 0 50.688 14.301867 63.522133 37.341867a20.002133 20.002133 0 1 0 34.986667-19.456 112.8448 112.8448 0 0 0-98.5088-57.9584c-39.697067 0-77.550933 21.981867-98.747734 57.378133a20.002133 20.002133 0 0 0 6.8608 27.477334z m-149.435734-24.814934a80.145067 80.145067 0 0 0-80.042666-80.042666 80.145067 80.145067 0 0 0-80.0768 80.042666 80.145067 80.145067 0 0 0 80.0768 80.0768 80.145067 80.145067 0 0 0 80.042666-80.0768z m-80.042666 40.0384a40.072533 40.072533 0 0 1-40.0384-40.0384 40.072533 40.072533 0 0 1 80.0768 0c0 22.084267-17.954133 40.0384-40.0384 40.0384zM587.195733 29.559467a20.002133 20.002133 0 1 0 40.0384 0 20.002133 20.002133 0 0 0-40.0384 0z" fill="#000000" p-id="8378"></path></svg>